<svg xmlns="http://www.w3.org/2000/svg" viewBox="0 0 64 64">
  <circle cx="32" cy="32" r="30" fill="#13c636"/>
  <path d="M40 21.6c-.5-.4-.8-.7-.4-.7.8 0 5.5.7 6.4-2.8.9-3.5-4.2-14-4.4-14.5-.2-.4.2-.9.8-.9.5 0 .9.5 1 .7 5.2 6.5 12.5 14.5 13.4 18 2.3 8.8-6.8 12.4-12.5 13.1 0 0 0 0 0 0-.5 0-.8-.4-.8-.9V31c0-4.3-1.4-7.4-4.1-9.4zM14.6 21.6c-2.5 2.2-4.1 5.4-4.1 9.4v3.1c0 .5-.3.9-.8.9 0 0 0 0 0 0-5.8-.7-15-4.3-12.6-13.1.9-3.5 8.2-11.5 13.4-18 .1-.1.3-.7.8-.7.6 0 .8.5.7.9-.1.4-5.3 10.9-4.3 14.5.9 3.5 5.6.7 6.4 2.8.2.5.2.7-.4.7-.4.2-.4.3-.2.3.1 0 .1 0 0 0zM27.6 20c6.2 0 12.7 3.7 12.7 11v6.2c0 1.8-1.2 3-3 3H30.2v3.3c0 3 3.6 4.7 6.4 4.7 2.1 0 5-1 6.2-3 0 0 0 0 0 0 2.1 1.2 3.4 2 5.5 3.1.7.4.9 1.2.5 1.8-.5.7-1.8 1.7-2.7 2.2-2.3 1.4-5.3 2.2-8 2.2h-.3C34 51 28 48.6 28 42.1V32.8c0-7.3 6.9-11 13.2-11.1.1 0 .1 0 0 0zm6.1 11c0-3-3.4-4.5-6.1-4.5-2.8 0-6.4 1.5-6.4 4.5v2.2h12.2c.4 0 .8-.4.6-.9.1-.4.1-.8-.1-1-.1-.2-.2-.3-.2-.3z" fill="#fff"/>
</svg>
